<?xml version="1.0" encoding="UTF-8"?>
<svg width="108px" height="108px" viewBox="0 0 108 108" version="1.1" xmlns="http://www.w3.org/2000/svg" xmlns:xlink="http://www.w3.org/1999/xlink">
    <title>04_icon_data_points</title>
    <g id="Micro-Weather" stroke="none" stroke-width="1" fill="none" fill-rule="evenodd">
        <g id="04_icon_data_points">
            <path d="M53.7,0 C83.4,0 107.4,24 107.4,53.7 C107.4,83.4 83.4,107.4 53.7,107.4 C24,107.4 0,83.4 0,53.7 C0,24 24,0 53.7,0" id="Fill-1" fill="#000000" fill-rule="nonzero"></path>
            <g id="Group" transform="translate(21.000000, 30.000000)" stroke="#FFFFFF" stroke-width="2">
                <rect id="Rectangle" x="0" y="0" width="66" height="42"></rect>
                <polyline id="Path" points="34 12 48 12 48 26"></polyline>
                <line x1="15" y1="52.5" x2="50.0305908" y2="52.5" id="Path-4"></line>
                <line x1="22.8" y1="52" x2="22.8" y2="42" id="Path-5"></line>
                <line x1="42.8" y1="52" x2="42.8" y2="42" id="Path-5-Copy"></line>
                <polyline id="Path-6" points="16.2878697 30 26.1584674 20.2023455 32.7209481 26.9728448 47.2114733 12.5"></polyline>
            </g>
        </g>
    </g>
</svg>